<?xml version="1.0" encoding="UTF-8"?>
<svg enable-background="new 0 0 56 56" version="1.1" viewBox="0 0 56 56" xmlns="http://www.w3.org/2000/svg">
 <path d="M36.985,0H7.963C7.155,0,6.5,0.655,6.5,1.926V55c0,0.345,0.655,1,1.463,1h40.074   c0.808,0,1.463-0.655,1.463-1V12.978c0-0.696-0.093-0.92-0.257-1.085L37.607,0.257C37.442,0.093,37.218,0,36.985,0z" fill="#E9E9E0"/>
 <polygon points="37.5 0.151 37.5 12 49.35 12" fill="#D9D7CA"/>
 <path d="M48.037,56H7.963C7.155,56,6.5,55.345,6.5,54.537V39h43v15.537C49.5,55.345,48.845,56,48.037,56z" fill="#CC4B4C"/>
 <g fill="#fff" stroke-width="1px" aria-label="STL">
  <path d="m22.2 45.9h1.26q-0.028-0.826-0.322-1.414-0.28-0.602-0.784-0.994-0.49-0.392-1.148-0.574t-1.428-0.182q-0.686 0-1.344 0.182-0.644 0.168-1.162 0.532-0.504 0.35-0.812 0.91-0.308 0.546-0.308 1.302 0 0.686 0.266 1.148 0.28 0.448 0.728 0.742 0.462 0.28 1.036 0.462 0.574 0.168 1.162 0.308 0.602 0.126 1.176 0.252t1.022 0.336q0.462 0.196 0.728 0.518 0.28 0.322 0.28 0.84 0 0.546-0.224 0.896t-0.588 0.56q-0.364 0.196-0.826 0.28-0.448 0.084-0.896 0.084-0.56 0-1.092-0.14t-0.938-0.434q-0.392-0.294-0.644-0.742-0.238-0.462-0.238-1.092h-1.26q0 0.91 0.322 1.582 0.336 0.658 0.896 1.092 0.574 0.42 1.316 0.63 0.756 0.21 1.596 0.21 0.686 0 1.372-0.168 0.7-0.154 1.26-0.504 0.56-0.364 0.91-0.924 0.364-0.574 0.364-1.372 0-0.742-0.28-1.232-0.266-0.49-0.728-0.812-0.448-0.322-1.022-0.504-0.574-0.196-1.176-0.336-0.588-0.14-1.162-0.252-0.574-0.126-1.036-0.308-0.448-0.182-0.728-0.462-0.266-0.294-0.266-0.756 0-0.49 0.182-0.812 0.196-0.336 0.504-0.532 0.322-0.196 0.728-0.28t0.826-0.084q1.036 0 1.694 0.49 0.672 0.476 0.784 1.554z"/>
  <path d="m27.76 44.09v8.876h1.33v-8.876h3.332v-1.12h-7.994v1.12z"/>
  <path d="m33.53 42.97v9.996h6.622v-1.12h-5.292v-8.876z"/>
 </g>
 <g fill="#cc4b4c" fill-rule="evenodd">
  <path d="m37 15.7-9 6-9-6 9-6z"/>
  <path d="m18.5 17.5 8.6 5.5v9l-8.6-5.694z"/>
  <path d="m37.5 17.5v9.684l-8.6 4.816v-9z"/>
 </g>
</svg>
