<?xml version="1.0" encoding="UTF-8"?>
<svg width="56" height="56" version="1.1" viewBox="0 0 56 56" xmlns="http://www.w3.org/2000/svg">
 <path d="m54.92 25.48-24.45-24.42c-1.409-1.407-3.695-1.407-5.104 0l-5.08 5.073 6.464 6.456c1.5-0.5049 3.214-0.1663 4.409 1.023 1.201 1.2 1.537 2.93 1.018 4.434l6.22 6.212c1.5-0.5177 3.238-0.1827 4.439 1.017 1.677 1.675 1.677 4.391 0 6.066-1.677 1.675-4.397 1.675-6.074 0-1.262-1.261-1.573-3.112-0.933-4.665l-5.793-5.786v15.23c0.4086 0.2022 0.7927 0.4714 1.134 0.81 1.677 1.675 1.677 4.391 0 6.066-1.677 1.675-4.397 1.675-6.074 0-1.677-1.675-1.677-4.391 0-6.066 0.4147-0.4136 0.8964-0.7248 1.409-0.938v-15.35c-0.5122-0.2095-0.9879-0.5195-1.409-0.938-1.268-1.267-1.573-3.131-0.9269-4.69l-6.342-6.334-16.77 16.75c-1.409 1.407-1.409 3.691 0 5.098l24.45 24.42c1.409 1.407 3.695 1.407 5.104 0l24.33-24.3c1.409-1.407 1.409-3.691 0-5.098" fill="#100f0d"/>
</svg>
